/* XPM */
static const char *const into_xpm[] = {
/* columns rows colors chars-per-pixel */
"16 15 3 1",
"  c None",
"R c Red",
"B c Black",
/* pixels */
"                ",
"                ",
" BBBBBB         ",
"       B        ",
"       B        ",
"     BBBBB      ",
"      BBB       ",
"       B        ",
"                ",
"      RRR       ",
"     RRRRR      ",
"     RRRRR      ",
"     RRRRR      ",
"      RRR       ",
"                ",
"                ",
};
